<svg width="400" height="300" xmlns="http://www.w3.org/2000/svg">
  <defs>
    <linearGradient id="grad2" x1="0%" y1="0%" x2="100%" y2="100%">
      <stop offset="0%" style="stop-color:#50C878;stop-opacity:1" />
      <stop offset="100%" style="stop-color:#3E9C5E;stop-opacity:1" />
    </linearGradient>
  </defs>
  <rect width="400" height="300" fill="url(#grad2)"/>
  <text x="200" y="120" font-family="Arial, sans-serif" font-size="24" font-weight="bold" fill="white" text-anchor="middle">반응형 디자인</text>
  <text x="200" y="150" font-family="Arial, sans-serif" font-size="18" fill="white" text-anchor="middle">모든 기기 지원</text>
  <!-- 모바일 화면 -->
  <rect x="80" y="180" width="40" height="70" rx="5" fill="white" opacity="0.9"/>
  <rect x="85" y="185" width="30" height="20" fill="#50C878"/>
  <rect x="85" y="210" width="30" height="8" fill="#50C878" opacity="0.7"/>
  <rect x="85" y="225" width="30" height="8" fill="#50C878" opacity="0.7"/>
  <!-- 태블릿 화면 -->
  <rect x="160" y="180" width="80" height="60" rx="5" fill="white" opacity="0.9"/>
  <rect x="165" y="185" width="70" height="25" fill="#50C878"/>
  <rect x="165" y="215" width="70" height="8" fill="#50C878" opacity="0.7"/>
  <rect x="165" y="225" width="70" height="8" fill="#50C878" opacity="0.7"/>
  <!-- 데스크톱 화면 -->
  <rect x="280" y="180" width="100" height="60" rx="5" fill="white" opacity="0.9"/>
  <rect x="285" y="185" width="90" height="30" fill="#50C878"/>
  <rect x="285" y="220" width="90" height="8" fill="#50C878" opacity="0.7"/>
  <rect x="285" y="230" width="90" height="8" fill="#50C878" opacity="0.7"/>
</svg>
